<svg width="50" height="50" viewBox="0 0 50 50" fill="none" xmlns="http://www.w3.org/2000/svg">
<g clip-path="url(#clip0)">
<path d="M12.9572 2.92243C14.8492 2.007 17.5388 1.51705 20.7 1.50044C23.8384 1.48394 27.3315 1.93459 30.7565 2.80485C37.7029 4.56989 43.9564 7.94736 46.6107 12.2006C47.8887 14.2487 48.4873 17.0608 48.4998 20.3248C48.5123 23.5697 47.9447 27.1313 47.0199 30.5595C46.0958 33.985 44.8287 37.2267 43.4761 39.8262C42.0923 42.4855 40.7196 44.2759 39.6692 45.0176L40.5344 46.2429L39.6692 45.0176C39.5742 45.0846 39.4784 45.1527 39.3813 45.2217C38.0244 46.1859 36.4323 47.3172 33.9009 47.9729C31.1868 48.6759 27.2645 48.8552 21.3554 47.372C14.5594 45.6662 11.0086 44.3578 8.64026 42.8522C6.32147 41.3782 5.05395 39.6718 2.90202 36.7664L1.70315 37.6544L2.90202 36.7664C2.1332 35.7284 1.57197 33.5005 1.50644 30.3139C1.44283 27.2207 1.85051 23.5166 2.72842 19.8048C3.60667 16.0916 4.94115 12.4316 6.69444 9.40422C8.45702 6.36084 10.5725 4.0762 12.9572 2.92243Z" fill="#417FF5" stroke="white" stroke-width="4"/>
<path d="M35.9018 14.5402C36.7524 13.6897 38.1314 13.6897 38.9819 14.5402C39.8325 15.3908 39.8325 16.7698 38.9819 17.6203L22.4947 34.1076C20.7936 35.8087 18.0356 35.8087 16.3345 34.1076L35.9018 14.5402Z" fill="white"/>
<path d="M21.4715 33.1341L20.5924 34.0131C19.3768 35.2287 17.406 35.2287 16.1904 34.0131L10.5398 28.3625C9.68921 27.512 9.68921 26.133 10.5398 25.2824C11.3903 24.4319 12.7693 24.4319 13.6199 25.2824L21.4715 33.1341Z" fill="white"/>
</g>
<defs>
<clipPath id="clip0">
<rect width="50" height="50" fill="white"/>
</clipPath>
</defs>
</svg>
