<svg xmlns="http://www.w3.org/2000/svg" viewBox="0 0 512 512"><path d="M86.448 298.512L0 254.576l86.448-43.936zm339.104 0L512 254.576l-86.448-43.936zm-341.04-108.08l-46.208-85.248 96.112 12.896zm342.976 0l46.208-85.248-96.112 12.896zM271.584 76.464L344.8 12.88l8.224 96.624zm-31.168 0L167.2 12.88l-8.224 96.624zM84.512 321.568l-46.208 85.248 96.112-12.896zm342.976 0l46.208 85.248-96.112-12.896zM271.584 435.536L344.8 499.12l8.224-96.624zm-31.168 0L167.2 499.12l-8.224-96.624zm14.08-326.032C173.584 109.504 108 175.088 108 256s65.584 146.496 146.496 146.496S400.992 336.912 400.992 256s-65.584-146.496-146.496-146.496h0z" fill="#fbc32f"></path></svg>